<svg width="1859" height="1590" viewBox="0 0 1859 1590" fill="none" xmlns="http://www.w3.org/2000/svg">
<path d="M922.509 853.797C929.249 849.077 935.972 844.359 942.71 839.619C941.977 844.929 941.475 850.311 940.456 855.516C932.953 893.536 932.932 894.103 965.414 894.212C976.11 894.247 977.191 899.419 974.664 909.149C973.355 914.23 971.873 919.398 969.608 923.845C958.659 945.394 947.614 966.853 936.202 988.01C931.386 996.923 927.46 1007.19 916.919 1013.93C918.974 996.406 923.762 983.15 928.68 969.98C937.91 945.315 935.526 940.876 912.818 940.517C893.514 940.228 893.271 938.528 900.677 917.013C907.942 895.936 921.281 878.282 922.509 853.797Z" fill="#0C0909"/>
<path d="M663.048 1024.43C663.603 1020.07 664.178 1015.71 664.733 1011.35C668.102 1013.23 671.69 1015.02 674.842 1017C697.775 1031.46 698.171 1031.63 717.358 1017.31C723.681 1012.6 728.021 1013.64 733.551 1017.61C736.425 1019.68 739.28 1021.83 741.143 1024.14C750.201 1035.28 759.16 1046.45 767.644 1057.68C771.231 1062.42 776.285 1067.17 774.957 1073.79C763.56 1067.75 756.841 1061.75 750.261 1055.72C737.952 1044.41 733.353 1044.16 719.736 1054.1C708.18 1062.54 706.813 1062.14 695.674 1052.57C684.812 1043.21 679.936 1032.14 663.048 1024.43Z" fill="#0C0909"/>
<path d="M498.892 1401.06C484.82 1408.99 468.21 1408.3 451.956 1408.3C440.857 1408.3 433.146 1410.08 426.011 1417.99C419.43 1425.25 409.123 1434.9 393.009 1425.25C389.897 1423.39 384.109 1423.51 379.57 1423.51C345.736 1423.6 311.882 1423.9 278.047 1424.08C268.692 1424.12 259.693 1425.03 250.476 1426.69C232.161 1430.01 214.877 1431.02 198.862 1419.22C191.548 1413.85 177.396 1413.42 169.428 1406.6C167.208 1406.16 164.988 1405.72 162.768 1405.26C163.244 1402.76 162.59 1400.53 160.073 1398.73C159.121 1365.9 158.189 1333.09 157.238 1300.27C157.753 1297.3 158.903 1294.32 158.705 1291.39C157.06 1266.71 160.687 1241.99 157.198 1217.33C155.751 1207.05 162.51 1202.44 176.504 1202.35C185.562 1202.29 195.195 1203.72 203.54 1199.49C206.929 1199.26 210.338 1199.01 213.728 1198.77C232.716 1201.96 252.002 1200.94 271.07 1200.02C301.158 1198.58 310.316 1205 307.779 1227.44C306.015 1243.06 310.236 1246.55 331.485 1246.58C357.133 1246.6 382.781 1246.53 408.429 1246.32C420.143 1246.23 426.11 1248.92 427.061 1258.87C428.29 1271.66 432.75 1284.3 436.218 1296.94C436.813 1299.07 435.207 1303.65 442.779 1301.69C455.108 1298.52 466.941 1296.1 467.338 1283.48C467.615 1274.98 471.143 1266.53 473.224 1258.08C473.799 1256.43 474.374 1254.79 474.929 1253.15C480.498 1239.39 481.41 1224.53 492.648 1212.12C493.322 1211.72 493.838 1211.23 494.195 1210.66C501.667 1208.67 506.385 1204.6 509.635 1199.43C511.756 1199.04 513.897 1198.62 516.018 1198.23C521.31 1199.65 526.146 1199.24 530.368 1196.32C532.588 1196 534.808 1195.69 537.028 1195.37C553.697 1197.36 567.235 1195.88 581.407 1186.26C592.844 1178.5 608.8 1169.43 628.304 1175.93C635.241 1180.6 639.7 1186.44 642.832 1192.9C630.801 1207.78 621.386 1222.98 631.911 1240.68C619.582 1271.31 631.614 1289.16 682.573 1309.88C684.694 1312.61 687.846 1313.72 692.048 1313.23L693.534 1313.88C693.534 1321.03 687.588 1323.36 679.184 1323.1C670.245 1322.83 661.325 1322.1 652.406 1321.57C650.483 1321.29 648.561 1321.03 646.638 1320.75C633.1 1317.65 619.582 1314.66 607.531 1323.42C607.492 1325.08 607.432 1326.75 607.392 1328.41C604.082 1331.98 606.837 1333.11 611.198 1333.61C616.966 1341.45 622.714 1349.29 628.482 1357.12C629.017 1360.75 630.801 1363.76 635.677 1365.29C641.148 1371.09 650.107 1376.34 641.128 1384.4C635.518 1388 636.073 1391.4 641.683 1394.66C643.308 1401.09 644.953 1407.52 646.578 1413.95C642.892 1417.56 645.528 1424.61 638.016 1425.53C628.858 1426.65 629.453 1418.87 625.152 1415.39C623.249 1413.86 621.148 1412.48 619.146 1411.04C614.151 1401.59 601.565 1395.19 597.165 1386.48C590.228 1372.79 581.526 1375.87 569.812 1380.94C561.705 1384.44 555.065 1386.76 544.659 1381.54C531.696 1375.02 516.632 1382.68 502.956 1384.44C495.543 1385.46 499.011 1395.16 498.892 1401.06ZM236.007 1406.61C224.946 1401.91 217.692 1402.18 208.356 1406.61C217.811 1410.99 225.065 1410.22 236.007 1406.61Z" fill="#0C0909"/>
<path d="M1858.15 1408.08C1858.13 1409.68 1858.12 1411.29 1858.1 1412.89C1857.8 1418.43 1857.52 1423.96 1857.22 1429.51C1849.41 1437.38 1839.05 1440.4 1825.89 1439.6C1818.61 1439.16 1811.16 1440.11 1803.79 1440.43C1796.89 1440.13 1789.97 1439.83 1783.07 1439.52C1776.91 1436.31 1769.69 1436.95 1762.82 1436.69C1723.85 1435.21 1684.88 1433.75 1645.89 1432.49C1601.93 1431.07 1560.19 1417.86 1515.71 1419.15C1506.47 1419.41 1497.16 1417.55 1487.98 1419.76C1479.52 1419.09 1471.07 1418.41 1462.61 1417.74C1461.8 1413.22 1461 1408.68 1460.21 1404.16C1463.12 1336.78 1460.13 1269.4 1459.97 1202.03C1459.95 1196.54 1457.89 1190.65 1464.79 1186.31C1470.04 1184.66 1470.06 1181.79 1468.2 1178.45C1468.06 1173.84 1467.92 1169.24 1467.8 1164.64C1468.79 1158.78 1469.78 1152.93 1470.79 1147.08C1486.45 1146.53 1502.11 1145.95 1517.75 1145.39L1518.68 1145.34C1550.08 1144.95 1581.47 1144.57 1612.87 1144.18C1621.39 1144.07 1629.18 1145.92 1628.09 1153.23C1625.38 1171.77 1634.79 1188.51 1640.48 1205.83C1637.27 1214.13 1637.27 1222.39 1640.58 1230.67C1640.58 1235.38 1640.56 1240.1 1640.56 1244.81C1637.96 1252.44 1631.09 1261.97 1648.63 1263.82C1660.34 1265.05 1672.97 1265.73 1684.68 1262.01C1704.68 1262.06 1724.66 1262.09 1744.66 1262.13C1760.99 1265.05 1777.4 1266.58 1794.05 1263.42C1798.04 1265.15 1800.1 1267.84 1800.97 1271.11C1800.93 1273.1 1800.89 1275.06 1800.85 1277.05C1799.96 1308.7 1793.66 1305.39 1839.25 1306.11C1843.72 1309.74 1848.74 1309.43 1854.01 1307.17C1859.62 1314.35 1857.34 1322.2 1857.36 1329.8C1857.4 1355.88 1854.61 1381.99 1858.15 1408.08Z" fill="#0C0909"/>
<path d="M1088.62 1437.47C1105.93 1471.66 1118.14 1507.35 1142.66 1539.44C1144.42 1541.74 1147.31 1544.98 1144.98 1546.56C1131.5 1555.58 1141.98 1558.86 1150.76 1564.17C1160.57 1570.09 1157.76 1575.06 1146.36 1579.06C1125.91 1586.22 1104.92 1590.43 1082.2 1589.3C1075.31 1588.97 1066.52 1590.11 1063.59 1584.49C1060.66 1578.87 1065.57 1573.17 1071.46 1569.74C1083.13 1562.94 1090.98 1553.72 1101.21 1546.07C1105.75 1542.68 1107.36 1538.95 1106.4 1534.33C1099.96 1503.41 1087.26 1472.22 1058.64 1450.71C1022.32 1423.4 1007.52 1389.89 988.449 1356.93C987.082 1354.56 985.496 1352.22 983.673 1350C981.255 1347.07 978.757 1343.71 973.068 1344.41C968.331 1345 967.479 1348.39 965.616 1351.05C946.845 1377.84 940.542 1407.08 940.284 1436.46C940.047 1461.82 933.387 1487.15 939.512 1512.69C942.168 1523.8 944.05 1534.69 950.809 1545.04C960.542 1559.97 953.862 1568.72 932.396 1572.32C911.167 1575.87 889.86 1577.97 868.116 1577.25C860.327 1576.99 850.911 1578.73 847.998 1570.45C844.886 1561.57 853.627 1555.91 861.774 1554.85C880.782 1552.37 890.851 1541.02 905.479 1534.4C910.374 1532.18 913.586 1529.39 913.804 1525.17C915.449 1493.22 910.87 1461.56 905.954 1429.91C910.83 1386.18 905.4 1342.03 915.568 1298.49C916.856 1293.02 923.833 1287.38 916.222 1281.64C903.953 1274.49 912.535 1265.79 912.971 1257.7C917.49 1251.72 920.681 1245.42 921.355 1238.54C924.031 1236.84 924.685 1234.9 922.664 1232.64C923.179 1230.96 923.694 1229.28 924.21 1227.6C927.203 1226.3 927.876 1224.58 925.934 1222.38C927.579 1218.93 929.204 1215.48 930.85 1212.03C934.318 1210.87 935.131 1209.02 933.387 1206.54C933.962 1205.08 934.537 1203.62 935.111 1202.16C937.966 1200.64 938.897 1198.73 937.153 1196.31C937.172 1194.51 937.172 1192.71 937.192 1190.92C922.544 1181.35 903.635 1185.85 887.085 1182.61C886.014 1182.07 884.964 1181.51 883.894 1180.96C883.557 1179.12 882.328 1177.79 879.791 1177.29C878.998 1174.08 878.225 1170.88 877.432 1167.66C879.335 1165.08 878.245 1163.11 875.153 1161.56C874.737 1160.19 874.3 1158.83 873.864 1157.46C875.965 1154.6 875.886 1151.87 872.873 1149.36C873.19 1144.28 874.875 1138.98 873.527 1134.15C870.158 1122.14 866.253 1110.76 888.314 1106.08C892.08 1105.27 890.772 1101.8 888.809 1099.45C885.242 1093.33 881.674 1087.2 878.086 1081.08C881.278 1076.84 884.468 1072.58 887.66 1068.34C896.956 1066.55 892.555 1061.95 891.604 1057.99C887.442 1040.57 890.296 1037.73 913.903 1035.69C918.878 1036.84 923.853 1037.98 928.828 1039.14C930.869 1039.88 932.832 1041.02 934.992 1041.27C946.687 1042.64 957.608 1044.76 955.368 1056.11C952.891 1068.71 945.695 1072.16 927.876 1069.53C916.202 1067.81 911.128 1070.56 913.486 1079.54C911.346 1084.65 910.593 1089.71 914.121 1094.69C909.443 1103.03 908.075 1111.31 915.092 1119.4C915.31 1126.72 915.548 1134.06 915.766 1141.39C913.467 1146.47 917.213 1150.39 920.959 1153.94C924.685 1157.46 928.531 1157.51 930.136 1152.35C932.237 1151.56 934.358 1150.75 936.459 1149.96C943.476 1150.53 949.58 1149.15 954.595 1145.38C956.993 1144.66 959.392 1143.94 961.79 1143.22C965.477 1143.1 967.954 1141.83 968.985 1139.13C972.196 1136.73 975.407 1134.36 978.618 1131.96C1014.59 1127.71 1022.44 1125.02 1020.96 1108.3C1019.59 1092.88 1029.5 1088.69 1045 1083.87C1068.33 1076.62 1095.94 1081.02 1111 1095.97C1116.14 1101.06 1117.5 1107.12 1111.18 1111.26C1098.75 1119.41 1096.39 1131.45 1087.93 1141.11C1077.94 1152.53 1080.06 1164.9 1091.22 1176.05C1093.66 1180.86 1096.1 1185.68 1098.56 1190.51C1096.24 1207.24 1093.9 1223.96 1091.58 1240.68C1091.48 1241.97 1091.38 1243.28 1091.3 1244.59C1086.88 1256.64 1082.5 1268.5 1064.09 1273.65C1059.96 1274.8 1058.83 1279.13 1058.97 1282.77C1058.22 1283.33 1057.58 1283.94 1057.07 1284.62C1052.33 1285.96 1047.61 1287.31 1042.88 1288.64C1038.76 1285.82 1035.5 1287.03 1032.61 1289.88C1024.92 1293.25 1026.64 1295.97 1033.7 1298.3C1035.82 1306.6 1037.94 1314.89 1040.08 1323.18C1039.09 1334.27 1024.05 1342.84 1029.06 1354.81C1035.92 1371.16 1042.6 1387.63 1051.28 1403.47C1058.87 1417.33 1069.2 1430.33 1088.64 1437.42L1088.62 1437.47Z" fill="#0C0909"/>
<path d="M901.299 740.288C901.817 739.652 902.167 738.94 902.306 738.175C912.351 732.645 913.834 723.322 917.206 715.032C921.078 705.536 916.101 699.521 901.517 699.728C893.518 699.843 885.665 700.94 877.663 700.847C855.525 700.609 851.258 696.127 857.555 680.793C859.171 676.867 863.246 673.495 861.182 668.641C861.667 668.073 861.924 667.434 861.968 666.741C866.548 664.252 868.522 661.018 865.767 656.425C866.274 655.846 866.608 655.221 866.814 654.528C872.348 652.11 875.751 648.78 874.244 643.296C874.689 642.617 874.944 641.873 874.985 641.089C887.285 628.989 896.501 615.787 896.136 599.188L896.476 598.534C902.715 595.783 905.875 591.9 903.079 585.852L903.418 584.646C915.977 578.473 914.834 567.744 915.8 557.715C920.418 550.444 924.673 543.062 926.442 534.836C939.833 534.202 935.717 543.489 940.195 547.921C939.145 552.503 938.075 557.082 937.023 561.679C931.333 564.292 929.892 568.922 928.72 573.512C924.43 590.228 920.1 606.937 916.292 623.771C909.64 653.334 910.165 653.326 950.817 652.793C961.578 652.662 976.174 646.145 982.876 655.103C989.303 663.682 977.464 672.001 972.708 680.261C966.707 690.726 952.959 698.352 955.468 712.002C950.714 717.905 945.983 723.798 941.229 729.701C934.53 731.875 932.432 735.907 934.101 741.495C931.933 744.35 929.784 747.209 927.614 750.079C910.087 757.208 906.925 772.698 895.901 783.644C891.186 788.331 887.61 792.286 878.429 788.798C880.559 784.593 882.667 780.398 884.797 776.193C892.023 769.43 898.001 762.214 896.922 752.467C897.307 751.896 897.503 751.261 897.503 750.589C902.339 748.133 903.525 744.695 901.299 740.288Z" fill="#0C0909"/>
<path d="M127.109 606.404C126.059 605.978 124.989 605.538 123.938 605.112C121.382 602.103 117.774 600.752 112.977 601.222L112.522 601.075C95.6539 589.977 76.9032 581.463 54.5055 577.94C53.8712 577.484 53.1376 577.147 52.3051 576.897C43.0487 568.397 30.1851 565.212 16.2906 563.538C14.5265 562.687 12.7621 561.836 10.998 560.984C11.6323 553.497 17.3013 552.998 25.5071 554.774C38.2718 557.534 50.977 560.764 64.5544 560.779C65.1688 561.087 65.8229 561.248 66.5563 561.278C79.5589 568.72 95.5546 571.157 110.381 575.459C117.655 577.573 126.356 580.89 133.115 575.693C139.854 570.526 137.496 563.847 134.325 557.681C134.741 548.741 135.137 539.816 135.553 530.875C138.962 529.833 142.371 528.776 145.781 527.734C147.862 528.483 149.943 529.231 152.044 529.98C155.751 532.652 159.1 535.661 163.223 537.922C204.193 560.426 245.401 582.681 286.193 605.347C291.861 608.489 300.246 610.661 301.673 617.722C293.388 617.62 288.076 612.261 280.484 614.331C280.009 613.964 279.454 613.729 278.78 613.612C259.553 600.547 234.004 595.996 212.102 586.542C198.901 580.846 192.578 586.63 192.994 595.291C193.43 604.114 192.4 613.333 196.859 621.935C196.681 623.594 196.503 625.238 196.305 626.897C192.836 628.277 189.367 629.642 185.879 631.022L185.661 630.964C174.62 625.033 164.829 617.487 150.359 616.005C145.246 614.067 140.132 612.129 135.018 610.191C133.531 607.652 130.895 606.375 127.109 606.404Z" fill="#0C0909"/>
<path d="M660.571 1445.37C660.67 1448.3 660.175 1451.33 660.968 1454.16C662.494 1459.62 663.821 1465.08 653.237 1465.2C644.04 1465.3 634.923 1463.45 636.727 1454.5C638.094 1447.66 637.935 1439.48 650.244 1436.98C653.693 1439.79 657.122 1442.58 660.571 1445.37Z" fill="#0C0909"/>
<path d="M305.776 844.778C326.45 846.07 340.621 852.411 355.547 856.566C385.556 864.933 414.891 874.593 444.84 883.078C464.106 888.539 467.277 886.719 469.378 871.906C470.885 861.161 471.757 850.356 473.739 839.654C476.157 826.545 485.453 823.462 498.297 832.241C539.01 860.06 580.475 887.291 619.007 916.813C622.02 919.117 627.55 921.539 623.784 925.342C620.077 929.085 615.241 926.237 611.376 924.608C591.615 916.255 572.091 907.549 552.19 899.373C535.224 892.414 527.949 895.849 526.582 910.412C525.611 920.717 526.74 931.287 522.102 941.225C518.138 949.71 510.983 953.512 499.645 946.98C447.119 916.651 391.006 890.212 335.349 863.26C325.736 858.621 315.152 854.701 305.776 844.778Z" fill="#0C0909"/>
<path d="M759.952 48C764.172 70.4462 759.295 88.007 757.748 105.494C754.623 140.66 749.44 175.635 746.14 210.801C744.008 233.423 747.542 236.064 769.268 232.381C785.037 229.711 800.689 226.337 816.531 224.166C835.921 221.525 843.06 230.151 834.3 247.272C806.573 301.539 779.912 356.393 749.104 409.016C746.695 413.124 744.87 419.961 738.343 417.467C731.919 415.017 734.561 408.767 735.759 403.999C741.876 379.69 748.564 355.527 754.375 331.144C759.324 310.371 752.287 304.018 731.13 308.361C716.15 311.442 701.403 316.826 685.882 315.872C672.61 315.051 665.091 308.977 671.092 294.336C698.921 226.528 720.165 156.46 742.271 86.6719C746.082 74.7007 748.564 61.8931 759.952 48Z" fill="#0C0909"/>
<path d="M1014.85 213.03C1015.25 210.446 1016.04 207.187 1019.93 207.011C1025.72 206.761 1025.5 210.886 1025.68 213.646C1027.4 238.176 1029.01 262.707 1030.36 287.237C1031.45 306.864 1033.25 308.215 1059.89 308.626C1065.26 308.714 1073.17 306.027 1075.25 311.518C1077.31 316.935 1069.07 318.197 1064.23 319.871C1045.76 326.198 1027.2 332.495 1008.27 338.015C995.47 341.744 988.949 337.942 990.138 327.842C994.697 289.145 1005.02 251.11 1014.85 213.03Z" fill="#0C0909"/>
<path d="M369.463 1158.31C370.335 1140.09 370.87 1123.46 372.039 1106.85C373.169 1090.88 375.132 1074.95 376.38 1059C377.53 1044.24 372.456 1040.59 352.555 1040.03C344.468 1039.81 331.426 1043.41 330.078 1035.64C328.83 1028.49 342.823 1028.56 350.474 1026.44C369.046 1021.27 387.936 1016.66 406.865 1012.27C421.79 1008.8 426.844 1012.4 423.95 1023.46C412.95 1065.51 394.457 1106.13 380.503 1147.62C379.313 1151.16 379.076 1155.52 369.463 1158.31Z" fill="#0C0909"/>
<path d="M767.188 955.92C768.06 957.359 768.694 958.137 768.199 958.9C767.545 959.928 766.296 959.34 765.364 958.973C762.431 957.799 759.497 956.595 756.623 955.245C746.654 950.532 736.168 947.097 726.099 942.649C723.046 941.299 721.521 941.857 720.549 944.426C716.843 954.261 713.413 964.229 708.775 973.668C708.26 974.696 708.201 976.487 706.496 976.208C704.435 975.87 704.613 974.006 704.316 972.714C701.382 959.517 697.22 946.378 693.712 933.21C689.926 919 685.03 904.892 681.145 890.711C678.529 881.125 674.109 871.892 670.323 862.526C669.788 861.175 668.955 859.604 670.838 858.988C672.582 858.415 673.613 860.03 674.366 860.984C679.797 867.884 686.794 873.668 693.335 879.775C706.516 892.121 719.38 904.672 730.836 918.178C736.426 924.769 742.689 930.92 749.032 937.027C755.593 943.295 761.083 950.298 767.188 955.92ZM699.995 904.643C699.995 906.199 699.816 907.314 700.054 908.43C700.53 910.72 701.224 912.996 701.858 915.286C704.018 922.963 704.95 923.316 711.788 919.352C713.354 918.442 713.671 917.297 712.383 915.976C708.637 912.144 705.604 907.74 699.995 904.643Z" fill="black"/>
<path d="M774.819 945.248C770.716 938.128 765.503 931.449 760.211 924.872C753.71 916.783 748.536 908.195 743.997 899.52C736.624 885.412 726.991 872.171 718.488 858.518C717.021 856.155 715.316 853.85 713.889 851.472C712.184 848.609 713.057 847.567 716.605 848.154C725.544 849.652 734.424 851.942 743.343 853.835C755.295 856.39 767.267 858.783 779.259 861.102C784.868 862.188 785.76 863.231 784.373 867.62C781.261 877.455 778.287 887.32 775.195 897.156C774.7 898.727 774.006 900.209 773.292 901.707C769.566 909.605 773.669 917.972 776.127 926.237C778.664 934.81 781.915 943.325 783.738 951.927C784.016 953.204 784.769 955.304 783.243 955.627C781.459 955.994 780.309 953.953 779.417 952.691C777.713 950.268 776.325 947.729 774.819 945.248ZM749.368 877.514C749.349 877.529 749.329 877.529 749.309 877.544C750.756 879.643 752.144 881.771 753.67 883.841C754.938 885.574 756.167 886.263 757.257 884.15C759.061 880.67 760.984 877.25 762.867 873.8C763.977 871.774 762.767 870.835 760.369 870.585C756.008 870.115 751.628 869.704 747.268 869.279C744.929 869.059 745.107 870.336 745.841 871.686C746.931 873.668 748.179 875.576 749.368 877.514Z" fill="black"/>
<path d="M821.656 812.1C822.687 814.038 821.696 815.33 820.625 816.68C816.879 821.348 813.232 826.075 809.545 830.773C807.405 833.503 807.226 836.322 809.367 839.977C818.127 854.848 827.087 869.66 833.766 885.148C836.125 890.623 839.752 895.879 843.042 901.149C848.255 909.487 851.645 918.207 855.252 926.883C856.204 929.202 853.865 931.566 850.317 932.256C847.502 932.799 846.174 931.258 845.064 929.144C836.085 912.144 825.125 895.761 815.571 878.938C809.109 867.561 801.954 856.448 794.481 845.424C791.607 841.166 788.119 839.581 783.104 839.229C777.534 838.847 771.925 837.951 766.316 837.232C765.404 837.115 764.333 836.997 763.897 836.043C763.442 835.045 764.294 834.634 765.047 834.267C782.906 825.562 801.042 817.282 821.18 811.909C821.279 812.1 821.438 812.159 821.656 812.1Z" fill="black"/>
<path d="M560.575 749.872C562.279 752.72 563.548 754.246 562.577 755.729C561.269 757.74 558.851 756.61 557.007 755.876C551.22 753.571 545.451 751.193 539.803 748.536C520.16 739.273 499.566 732.49 479.725 723.741C473.72 721.084 470.727 722.2 468.824 727.25C461.55 746.613 454.771 766.21 445.653 784.81C444.662 786.836 444.503 790.344 441.173 789.801C437.11 789.141 437.467 785.471 436.892 782.916C431.104 756.933 422.938 731.081 416.021 705.171C408.548 677.206 398.935 649.431 391.304 621.51C386.131 602.646 377.469 584.472 370.016 566.034C368.946 563.392 367.321 560.279 371.047 559.061C374.476 557.945 376.518 561.101 377.984 562.981C388.688 576.56 402.444 587.951 415.307 599.974C441.273 624.269 466.564 648.976 489.121 675.547C500.121 688.509 512.45 700.62 524.957 712.643C537.781 725.033 548.563 738.818 560.575 749.872ZM428.329 648.961C428.349 652.029 427.993 654.231 428.448 656.404C429.4 660.896 430.728 665.403 431.996 669.895C436.238 685.001 438.101 685.705 451.559 677.896C454.632 676.119 455.266 673.844 452.729 671.26C445.356 663.729 439.389 655.039 428.329 648.961Z" fill="black"/>
<path d="M575.599 728.865C567.512 714.845 557.265 701.707 546.859 688.759C534.054 672.831 523.886 655.934 514.967 638.847C500.477 611.087 481.489 585.03 464.74 558.136C461.847 553.468 458.497 548.961 455.702 544.264C452.352 538.612 454.077 536.586 461.054 537.746C478.674 540.682 496.137 545.188 513.678 548.932C537.206 553.967 560.793 558.665 584.36 563.216C595.42 565.344 597.164 567.399 594.429 576.046C588.324 595.394 582.438 614.83 576.372 634.193C575.401 637.276 574.013 640.212 572.626 643.133C565.292 658.665 573.379 675.151 578.196 691.431C583.191 708.298 589.573 725.048 593.161 742.003C593.696 744.513 595.182 748.653 592.189 749.27C588.701 749.989 586.402 745.982 584.638 743.486C581.308 738.759 578.572 733.753 575.599 728.865ZM525.511 595.57C525.472 595.585 525.432 595.6 525.392 595.614C528.247 599.754 530.982 603.938 533.955 608.019C536.433 611.425 538.871 612.79 541.031 608.635C544.599 601.795 548.365 595.042 552.092 588.274C554.292 584.281 551.913 582.446 547.176 581.933C538.573 581.008 529.991 580.186 521.388 579.378C516.79 578.938 517.147 581.477 518.594 584.12C520.695 587.981 523.192 591.753 525.511 595.57Z" fill="black"/>
<path d="M667.786 466.812C669.808 470.643 667.866 473.168 665.745 475.825C658.391 485.015 651.196 494.307 643.922 503.571C639.7 508.943 639.363 514.492 643.585 521.671C660.809 550.958 678.49 580.097 691.611 610.558C696.249 621.319 703.385 631.683 709.866 642.047C720.133 658.459 726.794 675.62 733.889 692.708C735.772 697.258 731.174 701.927 724.177 703.277C718.627 704.349 716.011 701.31 713.83 697.156C696.15 663.685 674.565 631.448 655.775 598.33C643.05 575.928 628.957 554.07 614.27 532.358C608.601 523.99 601.763 520.849 591.872 520.174C580.911 519.425 569.851 517.649 558.85 516.254C557.066 516.034 554.946 515.799 554.074 513.92C553.162 511.938 554.866 511.145 556.313 510.426C591.436 493.28 627.173 477 666.795 466.43C667.033 466.797 667.37 466.929 667.786 466.812Z" fill="black"/>
<path d="M312.563 461.686C315.338 466.31 317.4 468.806 315.834 471.243C313.713 474.531 309.769 472.681 306.756 471.477C297.321 467.734 287.926 463.858 278.749 459.528C246.758 444.437 213.201 433.397 180.893 419.143C171.101 414.827 166.225 416.618 163.133 424.854C151.28 456.401 140.26 488.33 125.374 518.615C123.749 521.918 123.511 527.628 118.06 526.748C111.44 525.676 112.015 519.687 111.083 515.532C101.668 473.21 88.3489 431.107 77.0708 388.888C64.9205 343.336 49.242 298.077 36.7944 252.613C28.3904 221.888 14.258 192.279 2.10774 162.258C0.363491 157.942 -2.29283 152.892 3.77239 150.91C9.36191 149.09 12.6724 154.228 15.0906 157.296C32.5132 179.419 54.9504 197.974 75.8814 217.557C118.16 257.12 159.367 297.373 196.135 340.664C214.073 361.788 234.132 381.504 254.508 401.101C275.399 421.213 292.98 443.673 312.563 461.686ZM97.1294 297.314C97.1492 302.32 96.5746 305.887 97.3278 309.454C98.8738 316.78 101.054 324.105 103.096 331.43C109.993 356.049 113.046 357.194 134.948 344.466C139.943 341.574 140.993 337.875 136.871 333.647C124.879 321.36 115.147 307.208 97.1294 297.314Z" fill="black"/>
<path d="M337.023 427.467C323.862 404.639 307.172 383.236 290.186 362.126C269.334 336.187 252.764 308.662 238.235 280.828C214.608 235.614 183.707 193.159 156.434 149.354C151.696 141.765 146.266 134.395 141.727 126.747C136.256 117.543 139.07 114.225 150.448 116.133C179.148 120.919 207.592 128.259 236.173 134.366C274.507 142.557 312.901 150.22 351.314 157.648C369.311 161.128 372.165 164.46 367.706 178.553C357.755 210.071 348.182 241.736 338.291 273.268C336.725 278.289 334.446 283.074 332.206 287.831C320.254 313.139 333.415 339.974 341.284 366.501C349.43 393.967 359.817 421.272 365.664 448.885C366.536 452.981 368.954 459.719 364.078 460.732C358.39 461.906 354.663 455.388 351.789 451.307C346.339 443.571 341.879 435.438 337.023 427.467ZM255.44 210.335C255.38 210.364 255.301 210.379 255.241 210.408C259.879 217.147 264.359 223.958 269.195 230.608C273.239 236.142 277.203 238.388 280.731 231.621C286.539 220.464 292.683 209.484 298.728 198.459C302.296 191.956 298.431 188.961 290.721 188.139C276.727 186.627 262.714 185.306 248.72 183.97C241.228 183.25 241.803 187.375 244.161 191.691C247.61 197.989 251.654 204.125 255.44 210.335Z" fill="black"/>
<path d="M487.186 0.601863C490.476 6.84086 487.305 10.966 483.856 15.2672C471.865 30.2408 460.15 45.3905 448.317 60.4522C441.439 69.2162 440.884 78.2297 447.762 89.9444C475.828 137.64 504.609 185.115 525.996 234.748C533.548 252.29 545.163 269.158 555.747 286.055C572.476 312.787 583.338 340.752 594.874 368.571C597.946 375.984 590.433 383.603 579.056 385.79C570.018 387.523 565.757 382.576 562.189 375.823C533.389 321.301 498.246 268.776 467.603 214.842C446.89 178.362 423.918 142.734 399.994 107.384C390.757 93.7465 379.617 88.6525 363.503 87.5368C345.664 86.3037 327.647 83.4264 309.689 81.151C306.795 80.784 303.327 80.417 301.92 77.3489C300.433 74.134 303.208 72.8275 305.586 71.6677C362.809 43.7317 421.024 17.2196 485.541 0C485.977 0.5872 486.512 0.792703 487.186 0.601863Z" fill="black"/>
</svg>
